<?xml version="1.0" encoding="UTF-8"?>
<svg id="Capa_1" data-name="Capa 1" xmlns="http://www.w3.org/2000/svg" viewBox="0 0 602.79 123.07">
  <defs>
    <style>
      .cls-1 {
        fill: none;
        stroke: #f6f6f6;
        stroke-linecap: round;
        stroke-miterlimit: 10;
        stroke-width: 3px;
      }

      .cls-2 {
        fill: #234362;
      }

      .cls-2, .cls-3 {
        stroke-width: 0px;
      }

      .cls-4 {
        opacity: .57;
      }

      .cls-3 {
        fill: #236b84;
      }
    </style>
  </defs>
  <g class="cls-4">
    <path class="cls-3" d="M497.55,77.5c1.76,2.27,1.37,3.79.51,4.38,7.77,4.83,7.53,4.6,11.43,8.93,2.13,1.42,13.62,7.61,14.86,4.61.83-2.02-4.57-7.81-4.57-7.81-6.17-3.12-9.19-5.53-12.16-6.88-2.47-1.12-4.76-1.21-10.08-3.22Z"/>
    <path class="cls-3" d="M518,59.61c6.45,2.73,8.73,5.34,7.31,6.9,12.55,4.18,7.26,2.07,18.65,7.37,13.77.67,29.8-1.49,31.22-5.33.97-2.63-3.81-4.09-19.15-7.08-14.88-.52-23.18-2.27-38.04-1.86Z"/>
    <path class="cls-3" d="M487.15,79.55c.98,1.83.55,3.09-.39,3.61,4.73,3.93,5.85,3.97,11.01,9.41,4.26,2.91,10.84,6.62,12.84,6.08,2-.54,0-5.46-1.12-7.85-5.75-4.24-8.3-5.62-11.46-7.22-2.39-1.21-5.62-1.86-10.89-4.03Z"/>
    <path class="cls-3" d="M479.99,72.13c17.51-1.15,11.85-4.43,8.44-6.55-.57-1.31,9.84-1.16,11.37-3.55.54-.85-.72-1.79-3.67-3.67-2.17-.79,6.46-2.74,9.58-5.52,1.81-1.61,2.83-3.24-3.95-5.77,5.71.55,7.92,2.06,7.78,3.9,7.94-.62,24.13.88,17.83-7.16.86.17,1.36.18,1.9.67,16.26-3.26,25.24-5.27,40.72-11.31,13.87-7.94,23.77-19.43,25.57-33.18-25.51,25.28-51.54,36.15-88.54,40.39-6.49.74-10.75.59-13.96,2.24-2.75,1.41-4.72,4.14-6.66,9.86-4.2,12.39-17.03,24.19-17.03,24.19,18.62,2.78,7.82-3.94,10.62-4.55Z"/>
    <path class="cls-3" d="M528.73,57.59c17.31,1.43,8.37.26,27.31,3.87,20.49.69,37.98-8.78,36.65-13.71-.59-2.2-6.18-2.65-17.26-.79-20.5,4.53-33.55,1.53-50.96,5.01,6.11,1.67,7.2,3.97,4.26,5.62Z"/>
    <path class="cls-3" d="M479.69,82.25c5.64,11.11,14.64,16.08,16.38,15.69,1.79-.4,1.79-3.97,1.7-5.36-4.28-3.34-7.69-5.94-11.32-7.98-1.83-1.03-4.14-1.26-6.77-2.34Z"/>
    <path class="cls-3" d="M482.04,76.46c-.92,1.83-4.99,2.02-8.6,1.4,1.93,1.7,3.97,2.87,5.85,3.62.1.2.2.38.3.58,15.06,2.99,3.12-4.18,2.44-5.6Z"/>
    <path class="cls-3" d="M519.69,70.72c1.43,2.14.85,3.23-.79,3.66,9.04,3.71,4.76,1.52,14.63,8-11.65-3.93-15.53-6.38-28.29-9.67,2.98,2.92,3.65,4.89,2.65,5.87,8.15,4.53,4.42,1.81,11.9,9.02,6.37,2.42,18.2,6.19,21.88,2.99,2.72-2.37-6.34-7.28-8.05-8.22,8.44,1.71,18.95,3,25.1.57,5.23-2.06-8.82-6.75-14.11-8.52-13.27-3.19-14.17-5.45-28.38-6.6,1.46.85,2.75,1.82,3.46,2.89Z"/>
    <path class="cls-3" d="M509.53,51.17c-.28,1.75-2.61,3.75-6.04,5.47,6.29.36,8.32,1.46,14.29,1.27,4.87-.15,17.76-1.09,5.8-5.77-3.29.49-7.87.34-14.05-.96Z"/>
    <path class="cls-3" d="M602.21,19.72c-1.5-2.6-18.73,8.8-22.97,10.94-4.28,2.16-9.35,3.9-14.33,5.44-13.18,7.23-18.88,7.14-35.13,9.12,1.26,1.15,1.22,2.61-.11,4.18,15.37-.9,30.34-1.26,45.75-2.44,4.88-1.76,10.09-4.55,14.61-7.92,3.61-2.69,15.51-13.53,12.17-19.32Z"/>
    <path class="cls-3" d="M493.77,66.09c5.08,1.4,6.62,3.39,12.86,5.15,2.2.62,8.33,1.87,11.1.9-1.07-2.1-13.05-7.2-15.89-9.1-1.82,1.32-5.09,2.35-8.07,3.06Z"/>
    <path class="cls-3" d="M500.57,57.92c3.26,1.84,3.25,3.46,1.66,4.81,4.61.91,8.11,2.41,12.87,3.16,15.54,2.47,6.73-1.99,1.4-5.13-3.55-2.09-12.2-4.28-15.92-2.84Z"/>
    <path class="cls-3" d="M489.56,72.6c-2.58.73-5.53.88-8.02,1.06,1.78,2.88,4.32,4.36,7.24,5.41,1.42.52,11.83,4.17,7.74-.66-3.03-3.57-4.12-3.97-6.96-5.81Z"/>
    <path class="cls-3" d="M492.38,66.4c3.67,2.59,1.49,4.64-1.55,5.7,4.27,1.27,10.93,7.67,15.36,5.29-.27-3.27-13.25-11.11-13.81-10.99Z"/>
    <path class="cls-3" d="M423.79,78.58c-1-.98-.33-2.96,2.65-5.87-12.76,3.29-16.64,5.74-28.29,9.67,9.87-6.48,5.6-4.29,14.63-8-1.65-.43-2.22-1.52-.79-3.66.71-1.07,2-2.03,3.46-2.89-14.22,1.15-15.12,3.41-28.39,6.6-5.29,1.77-19.33,6.46-14.11,8.52,6.15,2.42,16.66,1.13,25.1-.57-1.71.94-10.77,5.85-8.05,8.22,3.67,3.2,15.51-.57,21.88-2.99,7.48-7.21,3.75-4.49,11.9-9.02Z"/>
    <path class="cls-3" d="M433.62,81.88c-.86-.59-1.24-2.11.51-4.38-5.31,2.01-7.61,2.1-10.08,3.22-2.97,1.35-5.99,3.76-12.16,6.88,0,0-5.4,5.8-4.57,7.81,1.24,3,12.73-3.19,14.86-4.61,3.91-4.33,3.67-4.11,11.44-8.93Z"/>
    <path class="cls-3" d="M444.91,83.16c-.94-.52-1.37-1.79-.39-3.61-5.27,2.17-8.5,2.82-10.89,4.03-3.16,1.6-5.72,2.98-11.46,7.22-1.12,2.38-3.12,7.31-1.12,7.85,2.01.54,8.58-3.17,12.84-6.08,5.17-5.45,6.29-5.48,11.01-9.41Z"/>
    <path class="cls-3" d="M445.28,52.5c-1.94-5.72-3.91-8.45-6.66-9.86-3.21-1.65-7.47-1.5-13.96-2.24-37-4.25-63.04-15.12-88.55-40.39,1.79,13.75,11.7,25.24,25.57,33.18,15.49,6.03,24.46,8.04,40.72,11.31.54-.49,1.04-.5,1.9-.67-6.3,8.04,9.89,6.54,17.83,7.16-.14-1.83,2.07-3.35,7.78-3.9-6.77,2.53-5.75,4.15-3.95,5.77,3.12,2.78,11.75,4.73,9.58,5.52-2.95,1.87-4.21,2.82-3.67,3.67,1.53,2.39,11.95,2.24,11.38,3.55-3.41,2.12-9.07,5.39,8.44,6.55,2.81.61-8,7.33,10.62,4.55,0,0-12.83-11.79-17.03-24.19Z"/>
    <path class="cls-3" d="M433.9,92.58c-.08,1.39-.09,4.96,1.7,5.36,1.75.39,10.75-4.58,16.38-15.69-2.63,1.08-4.94,1.31-6.77,2.34-3.62,2.04-7.04,4.64-11.31,7.98Z"/>
    <path class="cls-3" d="M407.2,51.97c-17.4-3.48-30.45-.48-50.96-5.01-11.08-1.86-16.67-1.41-17.26.79-1.33,4.93,16.17,14.41,36.65,13.71,18.93-3.62,10-2.44,27.3-3.87-2.94-1.64-1.85-3.94,4.26-5.62Z"/>
    <path class="cls-3" d="M401.89,45.22c-16.25-1.98-21.95-1.88-35.13-9.12-4.98-1.54-10.05-3.28-14.32-5.44-4.24-2.14-21.47-13.54-22.97-10.94-3.34,5.79,8.56,16.63,12.17,19.32,4.52,3.37,9.73,6.16,14.61,7.92,15.41,1.18,30.38,1.53,45.75,2.44-1.33-1.57-1.37-3.03-.11-4.18Z"/>
    <path class="cls-3" d="M413.68,59.61c-14.86-.42-23.16,1.34-38.04,1.86-15.35,2.99-20.12,4.45-19.15,7.08,1.42,3.84,17.46,6,31.22,5.33,11.39-5.3,6.1-3.19,18.65-7.37-1.42-1.55.86-4.17,7.32-6.9Z"/>
    <path class="cls-3" d="M439.3,66.4c-.56-.12-13.54,7.73-13.81,10.99,4.43,2.38,11.09-4.02,15.36-5.29-3.05-1.07-5.22-3.11-1.55-5.7Z"/>
    <path class="cls-3" d="M428.19,56.63c-3.43-1.72-5.76-3.72-6.04-5.47-6.17,1.3-10.76,1.46-14.05.96-11.96,4.68.94,5.61,5.8,5.77,5.96.19,8-.91,14.29-1.27Z"/>
    <path class="cls-3" d="M435.16,78.42c-4.09,4.83,6.32,1.17,7.74.66,2.92-1.06,5.46-2.53,7.24-5.41-2.48-.18-5.44-.33-8.02-1.06-2.85,1.85-3.93,2.24-6.96,5.81Z"/>
    <path class="cls-3" d="M449.64,76.46c-.68,1.42-12.62,8.59,2.45,5.6.1-.2.2-.38.3-.58,1.89-.76,3.93-1.93,5.86-3.63-3.61.62-7.68.43-8.6-1.4Z"/>
    <path class="cls-3" d="M429.45,62.73c-1.58-1.35-1.6-2.97,1.66-4.81-3.72-1.44-12.37.75-15.92,2.84-5.33,3.14-14.15,7.61,1.4,5.13,4.76-.76,8.26-2.25,12.87-3.16Z"/>
    <path class="cls-3" d="M429.84,63.03c-2.84,1.91-14.82,7-15.89,9.1,2.76.97,8.9-.28,11.1-.9,6.24-1.75,7.79-3.75,12.86-5.15-2.97-.7-6.25-1.74-8.07-3.06Z"/>
  </g>
  <g>
    <g>
      <path class="cls-2" d="M31.48,96.42c-5.13,0-10.05-1-14.75-3.01-4.7-2.01-8.45-4.95-11.25-8.83-2.8-3.88-4.49-8.12-5.08-12.73-.26-1.97-.39-4.15-.39-6.51s.3-5.49.89-9.38c.59-3.88,1.89-8.09,3.9-12.63,2.01-4.54,4.39-8.55,7.16-12.04-1.12-4.41-1.68-8.47-1.68-12.19s.43-7.19,1.28-10.41c.13-.53.35-.9.64-1.14.3-.23.51-.35.64-.35.66,0,.85.81.59,2.42-.26,1.61-.39,3.92-.39,6.91s.43,6.79,1.28,11.4c5.26-6.78,11.45-11.71,18.55-14.8,5.46-2.37,11.18-3.55,17.17-3.55,1.71,0,3.49.1,5.33.3,10.13,1.12,16.97,5,20.53,11.65,1.45,2.76,2.17,5.62,2.17,8.59s-.69,6.02-2.07,9.18c-2.9,6.32-7.86,10.99-14.9,14.01-4.54,1.97-9.51,2.96-14.9,2.96-2.3,0-4.64-.16-7.01-.49-11.78-1.71-19.94-7.3-24.47-16.78-1.58,2.24-3.21,5.99-4.89,11.25-1.68,5.26-2.65,9.31-2.91,12.14-.26,2.83-.4,5.2-.4,7.11s.13,3.88.4,5.92c.46,3.62,1.84,6.89,4.15,9.82,2.3,2.93,5.38,4.97,9.23,6.12,3.85,1.15,7.19,1.73,10.02,1.73,9.14,0,16.94-1.91,23.39-5.72,3.88-2.3,6.92-4.92,9.13-7.85,2.2-2.93,4.56-6.96,7.06-12.09.4-.85.81-1.15,1.23-.89.43.26.41.89-.05,1.88-2.5,5.07-4.82,9.08-6.96,12.04-2.14,2.96-5.05,5.72-8.73,8.29-7.37,5.13-15.33,7.7-23.88,7.7ZM16.68,35.83c4.67,11.91,14.41,17.86,29.21,17.86,8.35,0,15.05-2.33,20.08-7.01,5.03-4.67,7.55-9.97,7.55-15.89s-2.57-10.53-7.7-13.82c-3.82-2.43-8.52-3.65-14.11-3.65s-11.22,1.61-16.88,4.84c-7.11,4.14-13.16,10.03-18.16,17.67Z"/>
      <path class="cls-2" d="M94.74,67.75c-2.17,4.18-3.47,7.3-3.9,9.38-.43,2.07-.64,3.75-.64,5.03s.49,1.92,1.48,1.92c1.25,0,2.8-1.15,4.64-3.45,2.7-3.36,5.36-7.73,7.99-13.13.26-.59.56-.92.89-.99.53-.2.79,0,.79.59,0,.33-.1.72-.3,1.18-6.05,12.24-11.15,18.36-15.3,18.36-1.91,0-3.45-.92-4.64-2.76-.59-.99-.89-2.3-.89-3.95s.33-3.65.99-6.02c-5.26,8.49-9.8,12.73-13.62,12.73-1.05,0-2.01-.33-2.86-.99-1.97-1.38-2.96-3.75-2.96-7.11,0-6.45,2.8-12.99,8.39-19.64,3.16-3.68,7.04-6.08,11.65-7.2,1.25-.33,2.43-.49,3.55-.49,3.03,0,5.59,1.05,7.7,3.16.66.72.85,1.42.59,2.07-.26.66-.82.92-1.68.79-.73-2.37-2.3-3.55-4.74-3.55-2.83,0-6.32,2.24-10.46,6.71-2.37,2.63-4.57,5.72-6.61,9.28-2.57,4.28-3.85,7.7-3.85,10.26s.82,3.85,2.47,3.85c3.95,0,9.11-6.05,15.49-18.16,1.25-2.43,2.3-4.1,3.16-4.98.85-.89,1.94-1.33,3.26-1.33.26,0,.94.1,2.02.3,1.09.2,1.89.23,2.42.1-1.18,1.18-2.86,3.87-5.03,8.04Z"/>
      <path class="cls-2" d="M134.12,54.09c-8.09,14.21-12.14,23.49-12.14,27.83,0,1.71.62,2.57,1.88,2.57,3.36,0,7.86-5.69,13.52-17.07.39-.92.79-1.28,1.18-1.09.4.2.59.46.59.79s-.13.72-.39,1.18c-3.49,7.04-6.43,11.89-8.83,14.56-2.4,2.67-4.8,4-7.2,4s-4.23-.92-5.48-2.76c-.66-.85-.99-2.02-.99-3.5s.33-3.27.99-5.38c.66-2.1,2.47-5.53,5.43-10.26.72-1.18,1.09-2.12,1.09-2.81s-.56-1.04-1.68-1.04-3.26,1.48-6.41,4.44c-4.74,4.34-9.31,10.86-13.72,19.54-.4.66-.84,1.07-1.33,1.23-.49.16-1.46.28-2.91.35-1.45.06-2.4.23-2.86.49,1.05-2.1,3.13-6.41,6.22-12.93,5.53-11.51,9.14-18.09,10.86-19.74.79-.79,1.88-1.18,3.26-1.18.26,0,.94.1,2.02.3,1.09.2,1.89.23,2.42.1-2.43,1.32-6.41,7.5-11.94,18.55,3.09-3.81,5.9-6.86,8.44-9.13,2.53-2.27,5.58-4.37,9.13-6.32,3.55-1.94,6.15-2.91,7.8-2.91.39,0,.76.07,1.09.2Z"/>
      <path class="cls-2" d="M158.2,80.73c0,2.11.85,3.16,2.57,3.16,3.09,0,7.2-5.17,12.34-15.49.2-.39.38-.79.54-1.18.16-.4.43-.66.79-.79.36-.13.61-.05.74.25.13.3.06.77-.2,1.43-5.26,12.24-10.59,18.36-15.99,18.36-1.78,0-3.19-.79-4.24-2.37-1.05-1.58-1.58-3.14-1.58-4.69s.16-2.98.49-4.29c-3.82,6.32-7.11,9.9-9.87,10.76-.79.33-1.56.49-2.32.49s-1.5-.1-2.22-.3c-3.22-.85-4.84-3.42-4.84-7.7,0-2.89.74-6.1,2.22-9.62,1.48-3.52,3.57-6.89,6.27-10.12,2.7-3.22,5.95-5.39,9.77-6.51,1.38-.46,3.01-.69,4.89-.69s3.96.59,6.27,1.78c4.47-8.42,8.29-16.22,11.45-23.39.92-2.17,1.83-3.57,2.71-4.19.89-.62,1.71-.94,2.47-.94h1.38c.16,0,.79.08,1.88.25,1.09.17,1.92.21,2.52.15-1.51,1.38-5.53,8.09-12.04,20.13-8.29,15.4-13.29,25.66-15,30.79-.66,1.91-.99,3.49-.99,4.74ZM163.03,54.78c-.86-.85-2.06-1.28-3.6-1.28s-3.7,1.15-6.46,3.45c-4.41,3.69-8.06,8.23-10.95,13.62-1.91,3.55-2.86,6.48-2.86,8.78,0,1.05.21,2.01.64,2.86.43.86,1.1,1.28,2.02,1.28,2.24,0,5-2.3,8.29-6.91,3.29-4.6,7.6-11.88,12.93-21.81Z"/>
      <path class="cls-2" d="M177.93,71.26c-.92,2.24-1.38,4.74-1.38,7.5,0,1.84.41,3.31,1.23,4.39.82,1.08,1.99,1.63,3.5,1.63,5.99,0,11.41-5.62,16.28-16.88.46-1.05,1.02-1.51,1.68-1.38.26.07.4.23.4.49s-.74,1.99-2.22,5.18c-1.48,3.19-2.98,5.77-4.49,7.75-3.36,4.61-7.5,6.91-12.43,6.91-2.63,0-4.87-.85-6.71-2.57-1.84-1.71-2.76-4.05-2.76-7.01s.71-6.1,2.12-9.42c1.41-3.32,3.34-6.41,5.77-9.28,2.43-2.86,5.23-4.95,8.39-6.27,1.51-.66,2.96-.99,4.34-.99s2.66.4,3.85,1.18c1.12.92,1.68,1.94,1.68,3.06,0,3.95-2.37,7.73-7.11,11.35-1.45,1.12-3.49,2.12-6.12,3.01-2.63.89-4.64,1.33-6.02,1.33ZM194.51,55.47c0-1.32-.53-1.97-1.58-1.97-1.84,0-4.64,2.27-8.39,6.81-2.24,2.76-4.21,5.86-5.92,9.28,1.12,0,2.75-.39,4.89-1.18,2.14-.79,4-1.84,5.58-3.16,3.62-3.09,5.43-6.35,5.43-9.77Z"/>
      <path class="cls-2" d="M202.41,70.12c-.53,1.55-.97,3.03-1.33,4.44-.36,1.42-.54,2.83-.54,4.24s.33,2.73.99,3.95c.66,1.22,1.71,1.83,3.16,1.83,2.37,0,4.67-1.59,6.91-4.79,2.24-3.19,4.6-7.25,7.11-12.19.53-.92,1.02-1.28,1.48-1.09.33.26.4.61.2,1.04-.2.43-.61,1.35-1.23,2.76-.63,1.42-1.09,2.4-1.38,2.96-.3.56-.82,1.55-1.58,2.96-.76,1.42-1.42,2.47-1.97,3.16-.56.69-1.32,1.58-2.27,2.67-.95,1.09-1.86,1.89-2.71,2.42-2.3,1.45-4.48,2.17-6.51,2.17s-3.62-.44-4.74-1.33c-1.12-.89-1.79-1.84-2.02-2.86-.23-1.02-.35-1.92-.35-2.71s.03-1.81.1-3.06c.2-2.1.61-4.15,1.23-6.12.62-1.97.97-3.09,1.04-3.36,1.51-5.46,3.67-11.41,6.46-17.86,2.8-6.45,5.16-11.3,7.11-14.56,1.94-3.26,3.47-5.48,4.59-6.66,2.24-2.37,4.44-3.55,6.61-3.55,1.51,0,2.53,1.09,3.06,3.26.06.39.1.89.1,1.48,0,2.24-.79,5.07-2.37,8.49-5.66,12.57-12.4,22.44-20.23,29.61-.07.26-.36,1.17-.89,2.71ZM214.05,51.32c3.29-5.2,5.71-9.62,7.25-13.27,1.54-3.65,2.32-6.13,2.32-7.45s-.23-1.97-.69-1.97c-.66,0-1.91,1.3-3.75,3.9-1.84,2.6-4.33,7.27-7.45,14.01-3.13,6.74-5.67,12.65-7.65,17.71,3.36-3.42,6.68-7.73,9.97-12.93Z"/>
      <path class="cls-2" d="M243.76,67.75c-2.17,4.18-3.47,7.3-3.9,9.38-.43,2.07-.64,3.75-.64,5.03s.49,1.92,1.48,1.92c1.25,0,2.8-1.15,4.64-3.45,2.7-3.36,5.36-7.73,7.99-13.13.26-.59.56-.92.89-.99.53-.2.79,0,.79.59,0,.33-.1.72-.3,1.18-6.05,12.24-11.15,18.36-15.3,18.36-1.91,0-3.45-.92-4.64-2.76-.59-.99-.89-2.3-.89-3.95s.33-3.65.99-6.02c-5.26,8.49-9.8,12.73-13.62,12.73-1.05,0-2.01-.33-2.86-.99-1.97-1.38-2.96-3.75-2.96-7.11,0-6.45,2.8-12.99,8.39-19.64,3.16-3.68,7.04-6.08,11.65-7.2,1.25-.33,2.43-.49,3.55-.49,3.03,0,5.59,1.05,7.7,3.16.66.72.85,1.42.59,2.07-.26.66-.82.92-1.68.79-.73-2.37-2.3-3.55-4.74-3.55-2.83,0-6.32,2.24-10.46,6.71-2.37,2.63-4.57,5.72-6.61,9.28-2.57,4.28-3.85,7.7-3.85,10.26s.82,3.85,2.47,3.85c3.95,0,9.11-6.05,15.49-18.16,1.25-2.43,2.3-4.1,3.16-4.98.85-.89,1.94-1.33,3.26-1.33.26,0,.94.1,2.02.3,1.09.2,1.89.23,2.42.1-1.18,1.18-2.86,3.87-5.03,8.04Z"/>
      <path class="cls-2" d="M265.27,117.64c-2.89,0-5.13-.61-6.71-1.83-1.58-1.22-2.37-2.68-2.37-4.39s.49-3.65,1.48-5.82c1.71-3.36,4.8-6.05,9.28-8.09,3.36-1.58,7.8-3.04,13.32-4.39,5.53-1.35,9.08-2.25,10.66-2.71,2.37-4.14,5.2-11.55,8.49-22.2-3.82,6.71-7.01,11.42-9.57,14.11-2.57,2.7-5.17,4.05-7.8,4.05-3.55,0-5.62-1.48-6.22-4.44-.26-.46-.33-1.15-.2-2.07.13-.92.21-1.58.25-1.97.03-.39.25-1.04.64-1.92.39-.89.66-1.53.79-1.92.72-1.51,1.35-2.7,1.88-3.55-1.05,0-1.35-.53-.89-1.58l1.78-3.45c2.24-4.28,4.08-7.9,5.53-10.86.66-1.38,1.94-2.07,3.85-2.07h6.02c-.13.13-.46.39-.99.79-1.18.79-2.07,1.71-2.66,2.76-2.37,4.08-5.33,9.9-8.88,17.47-1.45,3.09-2.17,5.36-2.17,6.81s.25,2.47.74,3.06c.49.59,1.17.89,2.02.89,1.25,0,2.99-1.32,5.23-3.95,4.67-5.46,9.83-14.05,15.49-25.76.72-1.38,2.01-2.07,3.85-2.07h5.33c-1.71,1.18-3.06,2.68-4.05,4.49-.99,1.81-2.06,4.26-3.21,7.35-1.15,3.09-2.6,7.2-4.34,12.34-1.74,5.13-3.08,8.98-4,11.55,6.18-1.84,10.92-5.1,14.21-9.77,1.45-2.04,3.52-5.66,6.22-10.86.46-.92.87-1.28,1.23-1.09.36.2.54.46.54.79s-.54,1.6-1.63,3.8c-1.08,2.21-2.19,4.24-3.31,6.12-1.12,1.88-2.57,3.8-4.34,5.77s-3.75,3.54-5.92,4.69c-2.17,1.15-5.07,2.38-8.68,3.7-5.07,9.21-10.17,15.99-15.3,20.33-4.8,3.95-10,5.92-15.59,5.92ZM259.54,107.87c-.72,1.45-1.09,2.78-1.09,4s.46,2.15,1.38,2.81c.92.66,2.07.99,3.45.99,3.82,0,7.9-1.96,12.24-5.87,4.34-3.92,8.16-8.11,11.45-12.58l2.17-3.65c-10.86,2.83-17.7,4.87-20.53,6.12-4.21,1.84-7.24,4.57-9.08,8.19Z"/>
      <path class="cls-2" d="M455.64,16.78l-4.24.79c-5.07,8.75-9.94,20.53-14.61,35.33-1.78,5.59-4.28,12.02-7.5,19.29-3.22,7.27-6.81,14-10.76,20.18-5.33,8.29-12.42,15.12-21.27,20.48-8.85,5.36-16.93,8.54-24.23,9.52-3.36.46-7.17.69-11.45.69s-8.68-.76-13.22-2.27c-7.11-2.37-11.97-6.25-14.61-11.65-1.18-2.5-1.78-5.43-1.78-8.78s.89-7.3,2.67-11.84c1.25-3.03,3.45-5.85,6.61-8.49,3.16-2.63,5.62-3.98,7.4-4.05.79-.06,1.18.07,1.18.39-.07.26-.49.59-1.28.99-2.11.86-4.44,2.73-7.01,5.63-2.57,2.9-4.26,5.81-5.08,8.73-.82,2.93-1.23,5.18-1.23,6.76,0,4.8,1.28,8.68,3.85,11.65,1.78,1.97,3.98,3.75,6.61,5.33,2.63,1.58,5.46,2.66,8.49,3.26,4.47.85,8.03,1.28,10.66,1.28s4.97-.26,7.01-.79c4.47-.99,8.8-2.63,12.98-4.93,4.18-2.3,7.88-4.82,11.1-7.55,3.22-2.73,6.43-6.1,9.62-10.12,3.19-4.01,5.87-7.67,8.04-10.95,2.17-3.29,4.47-7.24,6.91-11.84,3.95-7.5,7.99-16.12,12.14-25.86,5.2-11.58,10.46-21.58,15.79-30-9.15,1.51-18.46,4.8-27.93,9.87-4.8,2.57-8.92,5.82-12.34,9.77-4.41,5-6.61,10.36-6.61,16.09,0,3.09.74,5.49,2.22,7.2,1.48,1.71,3.04,2.57,4.69,2.57s3.45-.36,5.43-1.09c1.97-.72,3.75-1.97,5.33-3.75,2.5-2.89,3.75-6.22,3.75-9.97,0-1.58-.23-2.63-.69-3.16-.79-.53-.86-1.02-.2-1.48.72-.4,1.48-.16,2.27.69.66,1.45.99,3.14.99,5.08s-.72,4.16-2.17,6.66c-2.43,4.15-5.79,6.97-10.07,8.49-1.97.66-3.85.99-5.63.99-2.96,0-5.62-.95-7.99-2.86-3.03-2.5-4.54-5.85-4.54-10.07,0-5.33,1.91-10.43,5.72-15.3,2.89-3.75,6.3-6.84,10.21-9.28,3.91-2.43,8.34-4.6,13.27-6.51,7.96-3.09,16.61-5.26,25.96-6.51.79-1.31,1.97-2.86,3.55-4.64s2.89-2.83,3.95-3.16c1.05-.33,1.91-.49,2.57-.49,2.3,0,3.45.99,3.45,2.96-.07,1.78-.79,3.14-2.17,4.1-1.38.95-3.32,1.83-5.82,2.62ZM458.7,10.27c-.13,0-.28.03-.44.1-.17.07-.39.21-.69.44-.3.23-.58.44-.84.64-.26.2-.58.49-.94.89-.36.39-.66.71-.89.94-.23.23-.54.56-.94.99-.39.43-.66.71-.79.84,4.54-.79,6.78-2.01,6.71-3.65-.13-.79-.53-1.18-1.18-1.18Z"/>
      <path class="cls-2" d="M457.12,51.92c4.8,0,7.2,3.03,7.2,9.08,0,2.76-.72,5.72-2.17,8.88-1.84,4.28-4.61,8.16-8.29,11.65.85,1.65,2.4,2.47,4.64,2.47,1.78,0,3.45-.89,5.03-2.67,1.97-2.04,3.39-3.83,4.24-5.38.85-1.55,1.48-2.68,1.88-3.4.39-.72.9-1.76,1.53-3.11.62-1.35,1-2.17,1.14-2.47.13-.3.36-.44.69-.44.66-.06.99.17.99.69,0,.2-.07.43-.2.69l-.59,1.38c-.39.92-.69,1.58-.89,1.97-.2.4-.54,1.1-1.04,2.12-.49,1.02-.92,1.83-1.28,2.42-.36.59-.86,1.38-1.48,2.37-.63.99-1.18,1.78-1.68,2.37-.49.59-1.1,1.25-1.83,1.97s-1.42,1.28-2.07,1.68c-1.65.99-3.19,1.48-4.64,1.48-2.7,0-4.8-.85-6.32-2.57-3.03,2.24-5.82,3.36-8.39,3.36-4.8,0-7.2-3.03-7.2-9.08,0-2.76.72-5.72,2.17-8.88,1.97-4.6,4.75-8.52,8.34-11.74,3.58-3.22,6.99-4.84,10.21-4.84ZM458.2,54.97c-1.78,0-3.88,1.18-6.32,3.55-2.44,2.37-4.61,5.59-6.51,9.67-2.3,4.74-3.45,8.62-3.45,11.65s1.15,4.54,3.45,4.54c1.64,0,3.49-.89,5.53-2.67-1.05-1.51-1.58-3.12-1.58-4.84.13-2.83,1.28-4.24,3.45-4.24.85,0,1.56.3,2.12.89.56.59.84,1.13.84,1.63s-.07,1-.2,1.53c1.12-1.64,2.4-3.98,3.85-7.01,1.64-3.35,2.47-6.64,2.47-9.87s-1.22-4.84-3.65-4.84Z"/>
      <path class="cls-2" d="M480.7,84.58c.85.13,1.45.2,1.78.2,2.63,0,5.23-1.54,7.8-4.64,1.38-1.71,3.85-6.02,7.4-12.93.13-.33.36-.49.69-.49.59-.06.89.17.89.69,0,.13-.15.51-.44,1.13-.3.63-.58,1.25-.84,1.88-.26.63-.69,1.53-1.28,2.71-.59,1.18-1.1,2.14-1.53,2.86-.43.72-.97,1.61-1.63,2.66-.66,1.05-1.32,1.88-1.97,2.47l-2.07,2.17c-1.12,1.12-2.43,1.91-3.95,2.37-2.43.79-4.8.85-7.11.2-1.51.66-2.86.99-4.05.99-4.67,0-7.5-1.84-8.49-5.53-.2-.85-.3-1.89-.3-3.11s.41-2.38,1.23-3.5c.82-1.12,1.69-1.71,2.62-1.78,3.36-6.38,6.22-12.14,8.59-17.27,2.63-5.59,5.69-8.39,9.18-8.39.92,0,1.83.21,2.71.64.89.43,1.22.91.99,1.43-.23.53-.71.63-1.43.3-.72-.33-1.35-.49-1.88-.49s-.99.1-1.38.3c-2.24,1.05-3.36,3.32-3.36,6.81,0,1.84.26,3.36.79,4.54.53,1.18,1.12,2.47,1.78,3.85,1.51,3.42,2.27,6.22,2.27,8.39s-.69,4.31-2.07,6.42c-1.38,2.11-3.03,3.82-4.93,5.13ZM469.94,81.23c0,.39.03.82.1,1.28.53,1.78,1.74,2.66,3.65,2.66.79,0,1.45-.13,1.97-.39-2.43-1.51-3.75-3.98-3.95-7.4-1.18,1.18-1.78,2.47-1.78,3.85ZM477.35,83.89c2.89-2.24,4.34-5.86,4.34-10.86,0-2.04-.23-4.84-.69-8.39-.46-3.55-.69-5.95-.69-7.2s.03-2.1.1-2.57c-5,10-8.09,16.09-9.28,18.26,1.38,0,2.07.99,2.07,2.96,0,3.88,1.38,6.48,4.14,7.8Z"/>
      <path class="cls-2" d="M494.02,80.73c0-2.83,1.22-6.25,3.65-10.26-1.05,0-1.35-.53-.89-1.58l1.78-3.45c2.24-4.28,4.08-7.9,5.53-10.86.66-1.38,1.94-2.07,3.85-2.07h6.02c-2.37,1.71-4.75,5.02-7.16,9.92-2.4,4.9-4.26,8.75-5.58,11.55-1.32,2.8-1.97,4.92-1.97,6.37s.25,2.47.74,3.06c.49.59,1.17.89,2.02.89,1.25,0,2.99-1.32,5.23-3.95,3.49-4.08,8.39-12.66,14.7-25.76.72-1.38,2.01-2.07,3.85-2.07h5.33c-1.45,1.12-2.58,2.27-3.41,3.45-.82,1.18-1.96,3.29-3.4,6.32-3.95,7.9-6.15,13.13-6.61,15.69-.2.92-.3,1.78-.3,2.57,0,2.11.72,3.22,2.17,3.36,3.55,0,7.93-5.49,13.13-16.48.39-.92.84-1.25,1.33-.99.49.26.39,1.12-.3,2.57-.69,1.45-1.32,2.73-1.88,3.85-.56,1.12-1.42,2.65-2.57,4.59-1.15,1.94-2.22,3.47-3.21,4.59-2.57,2.9-5.08,4.34-7.55,4.34s-4.16-1.09-5.08-3.26c-.4-.99-.59-2.24-.59-3.75s.33-3.39.99-5.63c-4.8,8.42-9.24,12.63-13.32,12.63-3.55,0-5.62-1.48-6.22-4.44-.2-.33-.3-.72-.3-1.18ZM516.33,46.39c-.07,0-.18-.05-.34-.15-.17-.1-.25-.26-.25-.49s.06-.44.2-.64c.13-.2,1.07-.95,2.81-2.27,1.74-1.32,3.63-2.68,5.67-4.1,2.04-1.41,3.52-2.47,4.44-3.16.92-.69,1.83-1.04,2.71-1.04s1.68.17,2.37.49c.69.33,1.04.74,1.04,1.23s-.1.94-.3,1.33c-.33.79-3.29,2.45-8.88,4.98-5.59,2.53-8.75,3.8-9.47,3.8Z"/>
      <path class="cls-2" d="M537.05,71.26c-.92,2.24-1.38,4.74-1.38,7.5,0,1.84.41,3.31,1.23,4.39.82,1.08,1.99,1.63,3.5,1.63,5.99,0,11.41-5.62,16.28-16.88.46-1.05,1.02-1.51,1.68-1.38.26.07.39.23.39.49s-.74,1.99-2.22,5.18c-1.48,3.19-2.98,5.77-4.49,7.75-3.36,4.61-7.5,6.91-12.44,6.91-2.63,0-4.87-.85-6.71-2.57-1.84-1.71-2.76-4.05-2.76-7.01s.71-6.1,2.12-9.42c1.41-3.32,3.34-6.41,5.77-9.28,2.43-2.86,5.23-4.95,8.39-6.27,1.51-.66,2.96-.99,4.34-.99s2.66.4,3.85,1.18c1.12.92,1.68,1.94,1.68,3.06,0,3.95-2.37,7.73-7.11,11.35-1.45,1.12-3.49,2.12-6.12,3.01-2.63.89-4.64,1.33-6.02,1.33ZM553.63,55.47c0-1.32-.53-1.97-1.58-1.97-1.84,0-4.64,2.27-8.39,6.81-2.24,2.76-4.21,5.86-5.92,9.28,1.12,0,2.75-.39,4.89-1.18,2.14-.79,4-1.84,5.58-3.16,3.62-3.09,5.43-6.35,5.43-9.77Z"/>
    </g>
    <g>
      <path class="cls-1" d="M31.48,96.42c-5.13,0-10.05-1-14.75-3.01-4.7-2.01-8.45-4.95-11.25-8.83-2.8-3.88-4.49-8.12-5.08-12.73-.26-1.97-.39-4.15-.39-6.51s.3-5.49.89-9.38c.59-3.88,1.89-8.09,3.9-12.63,2.01-4.54,4.39-8.55,7.16-12.04-1.12-4.41-1.68-8.47-1.68-12.19s.43-7.19,1.28-10.41c.13-.53.35-.9.64-1.14.3-.23.51-.35.64-.35.66,0,.85.81.59,2.42-.26,1.61-.39,3.92-.39,6.91s.43,6.79,1.28,11.4c5.26-6.78,11.45-11.71,18.55-14.8,5.46-2.37,11.18-3.55,17.17-3.55,1.71,0,3.49.1,5.33.3,10.13,1.12,16.97,5,20.53,11.65,1.45,2.76,2.17,5.62,2.17,8.59s-.69,6.02-2.07,9.18c-2.9,6.32-7.86,10.99-14.9,14.01-4.54,1.97-9.51,2.96-14.9,2.96-2.3,0-4.64-.16-7.01-.49-11.78-1.71-19.94-7.3-24.47-16.78-1.58,2.24-3.21,5.99-4.89,11.25-1.68,5.26-2.65,9.31-2.91,12.14-.26,2.83-.4,5.2-.4,7.11s.13,3.88.4,5.92c.46,3.62,1.84,6.89,4.15,9.82,2.3,2.93,5.38,4.97,9.23,6.12,3.85,1.15,7.19,1.73,10.02,1.73,9.14,0,16.94-1.91,23.39-5.72,3.88-2.3,6.92-4.92,9.13-7.85,2.2-2.93,4.56-6.96,7.06-12.09.4-.85.81-1.15,1.23-.89.43.26.41.89-.05,1.88-2.5,5.07-4.82,9.08-6.96,12.04-2.14,2.96-5.05,5.72-8.73,8.29-7.37,5.13-15.33,7.7-23.88,7.7ZM16.68,35.83c4.67,11.91,14.41,17.86,29.21,17.86,8.35,0,15.05-2.33,20.08-7.01,5.03-4.67,7.55-9.97,7.55-15.89s-2.57-10.53-7.7-13.82c-3.82-2.43-8.52-3.65-14.11-3.65s-11.22,1.61-16.88,4.84c-7.11,4.14-13.16,10.03-18.16,17.67Z"/>
      <path class="cls-1" d="M94.74,67.75c-2.17,4.18-3.47,7.3-3.9,9.38-.43,2.07-.64,3.75-.64,5.03s.49,1.92,1.48,1.92c1.25,0,2.8-1.15,4.64-3.45,2.7-3.36,5.36-7.73,7.99-13.13.26-.59.56-.92.89-.99.53-.2.79,0,.79.59,0,.33-.1.72-.3,1.18-6.05,12.24-11.15,18.36-15.3,18.36-1.91,0-3.45-.92-4.64-2.76-.59-.99-.89-2.3-.89-3.95s.33-3.65.99-6.02c-5.26,8.49-9.8,12.73-13.62,12.73-1.05,0-2.01-.33-2.86-.99-1.97-1.38-2.96-3.75-2.96-7.11,0-6.45,2.8-12.99,8.39-19.64,3.16-3.68,7.04-6.08,11.65-7.2,1.25-.33,2.43-.49,3.55-.49,3.03,0,5.59,1.05,7.7,3.16.66.72.85,1.42.59,2.07-.26.66-.82.92-1.68.79-.73-2.37-2.3-3.55-4.74-3.55-2.83,0-6.32,2.24-10.46,6.71-2.37,2.63-4.57,5.72-6.61,9.28-2.57,4.28-3.85,7.7-3.85,10.26s.82,3.85,2.47,3.85c3.95,0,9.11-6.05,15.49-18.16,1.25-2.43,2.3-4.1,3.16-4.98.85-.89,1.94-1.33,3.26-1.33.26,0,.94.1,2.02.3,1.09.2,1.89.23,2.42.1-1.18,1.18-2.86,3.87-5.03,8.04Z"/>
      <path class="cls-1" d="M134.12,54.09c-8.09,14.21-12.14,23.49-12.14,27.83,0,1.71.62,2.57,1.88,2.57,3.36,0,7.86-5.69,13.52-17.07.39-.92.79-1.28,1.18-1.09.4.2.59.46.59.79s-.13.72-.39,1.18c-3.49,7.04-6.43,11.89-8.83,14.56-2.4,2.67-4.8,4-7.2,4s-4.23-.92-5.48-2.76c-.66-.85-.99-2.02-.99-3.5s.33-3.27.99-5.38c.66-2.1,2.47-5.53,5.43-10.26.72-1.18,1.09-2.12,1.09-2.81s-.56-1.04-1.68-1.04-3.26,1.48-6.41,4.44c-4.74,4.34-9.31,10.86-13.72,19.54-.4.66-.84,1.07-1.33,1.23-.49.16-1.46.28-2.91.35-1.45.06-2.4.23-2.86.49,1.05-2.1,3.13-6.41,6.22-12.93,5.53-11.51,9.14-18.09,10.86-19.74.79-.79,1.88-1.18,3.26-1.18.26,0,.94.1,2.02.3,1.09.2,1.89.23,2.42.1-2.43,1.32-6.41,7.5-11.94,18.55,3.09-3.81,5.9-6.86,8.44-9.13,2.53-2.27,5.58-4.37,9.13-6.32,3.55-1.94,6.15-2.91,7.8-2.91.39,0,.76.07,1.09.2Z"/>
      <path class="cls-1" d="M158.2,80.73c0,2.11.85,3.16,2.57,3.16,3.09,0,7.2-5.17,12.34-15.49.2-.39.38-.79.54-1.18.16-.4.43-.66.79-.79.36-.13.61-.05.74.25.13.3.06.77-.2,1.43-5.26,12.24-10.59,18.36-15.99,18.36-1.78,0-3.19-.79-4.24-2.37-1.05-1.58-1.58-3.14-1.58-4.69s.16-2.98.49-4.29c-3.82,6.32-7.11,9.9-9.87,10.76-.79.33-1.56.49-2.32.49s-1.5-.1-2.22-.3c-3.22-.85-4.84-3.42-4.84-7.7,0-2.89.74-6.1,2.22-9.62,1.48-3.52,3.57-6.89,6.27-10.12,2.7-3.22,5.95-5.39,9.77-6.51,1.38-.46,3.01-.69,4.89-.69s3.96.59,6.27,1.78c4.47-8.42,8.29-16.22,11.45-23.39.92-2.17,1.83-3.57,2.71-4.19.89-.62,1.71-.94,2.47-.94h1.38c.16,0,.79.08,1.88.25,1.09.17,1.92.21,2.52.15-1.51,1.38-5.53,8.09-12.04,20.13-8.29,15.4-13.29,25.66-15,30.79-.66,1.91-.99,3.49-.99,4.74ZM163.03,54.78c-.86-.85-2.06-1.28-3.6-1.28s-3.7,1.15-6.46,3.45c-4.41,3.69-8.06,8.23-10.95,13.62-1.91,3.55-2.86,6.48-2.86,8.78,0,1.05.21,2.01.64,2.86.43.86,1.1,1.28,2.02,1.28,2.24,0,5-2.3,8.29-6.91,3.29-4.6,7.6-11.88,12.93-21.81Z"/>
      <path class="cls-1" d="M177.93,71.26c-.92,2.24-1.38,4.74-1.38,7.5,0,1.84.41,3.31,1.23,4.39.82,1.08,1.99,1.63,3.5,1.63,5.99,0,11.41-5.62,16.28-16.88.46-1.05,1.02-1.51,1.68-1.38.26.07.4.23.4.49s-.74,1.99-2.22,5.18c-1.48,3.19-2.98,5.77-4.49,7.75-3.36,4.61-7.5,6.91-12.43,6.91-2.63,0-4.87-.85-6.71-2.57-1.84-1.71-2.76-4.05-2.76-7.01s.71-6.1,2.12-9.42c1.41-3.32,3.34-6.41,5.77-9.28,2.43-2.86,5.23-4.95,8.39-6.27,1.51-.66,2.96-.99,4.34-.99s2.66.4,3.85,1.18c1.12.92,1.68,1.94,1.68,3.06,0,3.95-2.37,7.73-7.11,11.35-1.45,1.12-3.49,2.12-6.12,3.01-2.63.89-4.64,1.33-6.02,1.33ZM194.51,55.47c0-1.32-.53-1.97-1.58-1.97-1.84,0-4.64,2.27-8.39,6.81-2.24,2.76-4.21,5.86-5.92,9.28,1.12,0,2.75-.39,4.89-1.18,2.14-.79,4-1.84,5.58-3.16,3.62-3.09,5.43-6.35,5.43-9.77Z"/>
      <path class="cls-1" d="M202.41,70.12c-.53,1.55-.97,3.03-1.33,4.44-.36,1.42-.54,2.83-.54,4.24s.33,2.73.99,3.95c.66,1.22,1.71,1.83,3.16,1.83,2.37,0,4.67-1.59,6.91-4.79,2.24-3.19,4.6-7.25,7.11-12.19.53-.92,1.02-1.28,1.48-1.09.33.26.4.61.2,1.04-.2.43-.61,1.35-1.23,2.76-.63,1.42-1.09,2.4-1.38,2.96-.3.56-.82,1.55-1.58,2.96-.76,1.42-1.42,2.47-1.97,3.16-.56.69-1.32,1.58-2.27,2.67-.95,1.09-1.86,1.89-2.71,2.42-2.3,1.45-4.48,2.17-6.51,2.17s-3.62-.44-4.74-1.33c-1.12-.89-1.79-1.84-2.02-2.86-.23-1.02-.35-1.92-.35-2.71s.03-1.81.1-3.06c.2-2.1.61-4.15,1.23-6.12.62-1.97.97-3.09,1.04-3.36,1.51-5.46,3.67-11.41,6.46-17.86,2.8-6.45,5.16-11.3,7.11-14.56,1.94-3.26,3.47-5.48,4.59-6.66,2.24-2.37,4.44-3.55,6.61-3.55,1.51,0,2.53,1.09,3.06,3.26.06.39.1.89.1,1.48,0,2.24-.79,5.07-2.37,8.49-5.66,12.57-12.4,22.44-20.23,29.61-.07.26-.36,1.17-.89,2.71ZM214.05,51.32c3.29-5.2,5.71-9.62,7.25-13.27,1.54-3.65,2.32-6.13,2.32-7.45s-.23-1.97-.69-1.97c-.66,0-1.91,1.3-3.75,3.9-1.84,2.6-4.33,7.27-7.45,14.01-3.13,6.74-5.67,12.65-7.65,17.71,3.36-3.42,6.68-7.73,9.97-12.93Z"/>
      <path class="cls-1" d="M243.76,67.75c-2.17,4.18-3.47,7.3-3.9,9.38-.43,2.07-.64,3.75-.64,5.03s.49,1.92,1.48,1.92c1.25,0,2.8-1.15,4.64-3.45,2.7-3.36,5.36-7.73,7.99-13.13.26-.59.56-.92.89-.99.53-.2.79,0,.79.59,0,.33-.1.72-.3,1.18-6.05,12.24-11.15,18.36-15.3,18.36-1.91,0-3.45-.92-4.64-2.76-.59-.99-.89-2.3-.89-3.95s.33-3.65.99-6.02c-5.26,8.49-9.8,12.73-13.62,12.73-1.05,0-2.01-.33-2.86-.99-1.97-1.38-2.96-3.75-2.96-7.11,0-6.45,2.8-12.99,8.39-19.64,3.16-3.68,7.04-6.08,11.65-7.2,1.25-.33,2.43-.49,3.55-.49,3.03,0,5.59,1.05,7.7,3.16.66.72.85,1.42.59,2.07-.26.66-.82.92-1.68.79-.73-2.37-2.3-3.55-4.74-3.55-2.83,0-6.32,2.24-10.46,6.71-2.37,2.63-4.57,5.72-6.61,9.28-2.57,4.28-3.85,7.7-3.85,10.26s.82,3.85,2.47,3.85c3.95,0,9.11-6.05,15.49-18.16,1.25-2.43,2.3-4.1,3.16-4.98.85-.89,1.94-1.33,3.26-1.33.26,0,.94.1,2.02.3,1.09.2,1.89.23,2.42.1-1.18,1.18-2.86,3.87-5.03,8.04Z"/>
      <path class="cls-1" d="M265.27,117.64c-2.89,0-5.13-.61-6.71-1.83-1.58-1.22-2.37-2.68-2.37-4.39s.49-3.65,1.48-5.82c1.71-3.36,4.8-6.05,9.28-8.09,3.36-1.58,7.8-3.04,13.32-4.39,5.53-1.35,9.08-2.25,10.66-2.71,2.37-4.14,5.2-11.55,8.49-22.2-3.82,6.71-7.01,11.42-9.57,14.11-2.57,2.7-5.17,4.05-7.8,4.05-3.55,0-5.62-1.48-6.22-4.44-.26-.46-.33-1.15-.2-2.07.13-.92.21-1.58.25-1.97.03-.39.25-1.04.64-1.92.39-.89.66-1.53.79-1.92.72-1.51,1.35-2.7,1.88-3.55-1.05,0-1.35-.53-.89-1.58l1.78-3.45c2.24-4.28,4.08-7.9,5.53-10.86.66-1.38,1.94-2.07,3.85-2.07h6.02c-.13.13-.46.39-.99.79-1.18.79-2.07,1.71-2.66,2.76-2.37,4.08-5.33,9.9-8.88,17.47-1.45,3.09-2.17,5.36-2.17,6.81s.25,2.47.74,3.06c.49.59,1.17.89,2.02.89,1.25,0,2.99-1.32,5.23-3.95,4.67-5.46,9.83-14.05,15.49-25.76.72-1.38,2.01-2.07,3.85-2.07h5.33c-1.71,1.18-3.06,2.68-4.05,4.49-.99,1.81-2.06,4.26-3.21,7.35-1.15,3.09-2.6,7.2-4.34,12.34-1.74,5.13-3.08,8.98-4,11.55,6.18-1.84,10.92-5.1,14.21-9.77,1.45-2.04,3.52-5.66,6.22-10.86.46-.92.87-1.28,1.23-1.09.36.2.54.46.54.79s-.54,1.6-1.63,3.8c-1.08,2.21-2.19,4.24-3.31,6.12-1.12,1.88-2.57,3.8-4.34,5.77s-3.75,3.54-5.92,4.69c-2.17,1.15-5.07,2.38-8.68,3.7-5.07,9.21-10.17,15.99-15.3,20.33-4.8,3.95-10,5.92-15.59,5.92ZM259.54,107.87c-.72,1.45-1.09,2.78-1.09,4s.46,2.15,1.38,2.81c.92.66,2.07.99,3.45.99,3.82,0,7.9-1.96,12.24-5.87,4.34-3.92,8.16-8.11,11.45-12.58l2.17-3.65c-10.86,2.83-17.7,4.87-20.53,6.12-4.21,1.84-7.24,4.57-9.08,8.19Z"/>
      <path class="cls-1" d="M455.64,16.78l-4.24.79c-5.07,8.75-9.94,20.53-14.61,35.33-1.78,5.59-4.28,12.02-7.5,19.29-3.22,7.27-6.81,14-10.76,20.18-5.33,8.29-12.42,15.12-21.27,20.48-8.85,5.36-16.93,8.54-24.23,9.52-3.36.46-7.17.69-11.45.69s-8.68-.76-13.22-2.27c-7.11-2.37-11.97-6.25-14.61-11.65-1.18-2.5-1.78-5.43-1.78-8.78s.89-7.3,2.67-11.84c1.25-3.03,3.45-5.85,6.61-8.49,3.16-2.63,5.62-3.98,7.4-4.05.79-.06,1.18.07,1.18.39-.07.26-.49.59-1.28.99-2.11.86-4.44,2.73-7.01,5.63-2.57,2.9-4.26,5.81-5.08,8.73-.82,2.93-1.23,5.18-1.23,6.76,0,4.8,1.28,8.68,3.85,11.65,1.78,1.97,3.98,3.75,6.61,5.33,2.63,1.58,5.46,2.66,8.49,3.26,4.47.85,8.03,1.28,10.66,1.28s4.97-.26,7.01-.79c4.47-.99,8.8-2.63,12.98-4.93,4.18-2.3,7.88-4.82,11.1-7.55,3.22-2.73,6.43-6.1,9.62-10.12,3.19-4.01,5.87-7.67,8.04-10.95,2.17-3.29,4.47-7.24,6.91-11.84,3.95-7.5,7.99-16.12,12.14-25.86,5.2-11.58,10.46-21.58,15.79-30-9.15,1.51-18.46,4.8-27.93,9.87-4.8,2.57-8.92,5.82-12.34,9.77-4.41,5-6.61,10.36-6.61,16.09,0,3.09.74,5.49,2.22,7.2,1.48,1.71,3.04,2.57,4.69,2.57s3.45-.36,5.43-1.09c1.97-.72,3.75-1.97,5.33-3.75,2.5-2.89,3.75-6.22,3.75-9.97,0-1.58-.23-2.63-.69-3.16-.79-.53-.86-1.02-.2-1.48.72-.4,1.48-.16,2.27.69.66,1.45.99,3.14.99,5.08s-.72,4.16-2.17,6.66c-2.43,4.15-5.79,6.97-10.07,8.49-1.97.66-3.85.99-5.63.99-2.96,0-5.62-.95-7.99-2.86-3.03-2.5-4.54-5.85-4.54-10.07,0-5.33,1.91-10.43,5.72-15.3,2.89-3.75,6.3-6.84,10.21-9.28,3.91-2.43,8.34-4.6,13.27-6.51,7.96-3.09,16.61-5.26,25.96-6.51.79-1.31,1.97-2.86,3.55-4.64s2.89-2.83,3.95-3.16c1.05-.33,1.91-.49,2.57-.49,2.3,0,3.45.99,3.45,2.96-.07,1.78-.79,3.14-2.17,4.1-1.38.95-3.32,1.83-5.82,2.62ZM458.7,10.27c-.13,0-.28.03-.44.1-.17.07-.39.21-.69.44-.3.23-.58.44-.84.64-.26.2-.58.49-.94.89-.36.39-.66.71-.89.94-.23.23-.54.56-.94.99-.39.43-.66.71-.79.84,4.54-.79,6.78-2.01,6.71-3.65-.13-.79-.53-1.18-1.18-1.18Z"/>
      <path class="cls-1" d="M457.12,51.92c4.8,0,7.2,3.03,7.2,9.08,0,2.76-.72,5.72-2.17,8.88-1.84,4.28-4.61,8.16-8.29,11.65.85,1.65,2.4,2.47,4.64,2.47,1.78,0,3.45-.89,5.03-2.67,1.97-2.04,3.39-3.83,4.24-5.38.85-1.55,1.48-2.68,1.88-3.4.39-.72.9-1.76,1.53-3.11.62-1.35,1-2.17,1.14-2.47.13-.3.36-.44.69-.44.66-.06.99.17.99.69,0,.2-.07.43-.2.69l-.59,1.38c-.39.92-.69,1.58-.89,1.97-.2.4-.54,1.1-1.04,2.12-.49,1.02-.92,1.83-1.28,2.42-.36.59-.86,1.38-1.48,2.37-.63.99-1.18,1.78-1.68,2.37-.49.59-1.1,1.25-1.83,1.97s-1.42,1.28-2.07,1.68c-1.65.99-3.19,1.48-4.64,1.48-2.7,0-4.8-.85-6.32-2.57-3.03,2.24-5.82,3.36-8.39,3.36-4.8,0-7.2-3.03-7.2-9.08,0-2.76.72-5.72,2.17-8.88,1.97-4.6,4.75-8.52,8.34-11.74,3.58-3.22,6.99-4.84,10.21-4.84ZM458.2,54.97c-1.78,0-3.88,1.18-6.32,3.55-2.44,2.37-4.61,5.59-6.51,9.67-2.3,4.74-3.45,8.62-3.45,11.65s1.15,4.54,3.45,4.54c1.64,0,3.49-.89,5.53-2.67-1.05-1.51-1.58-3.12-1.58-4.84.13-2.83,1.28-4.24,3.45-4.24.85,0,1.56.3,2.12.89.56.59.84,1.13.84,1.63s-.07,1-.2,1.53c1.12-1.64,2.4-3.98,3.85-7.01,1.64-3.35,2.47-6.64,2.47-9.87s-1.22-4.84-3.65-4.84Z"/>
      <path class="cls-1" d="M480.7,84.58c.85.13,1.45.2,1.78.2,2.63,0,5.23-1.54,7.8-4.64,1.38-1.71,3.85-6.02,7.4-12.93.13-.33.36-.49.69-.49.59-.06.89.17.89.69,0,.13-.15.51-.44,1.13-.3.63-.58,1.25-.84,1.88-.26.63-.69,1.53-1.28,2.71-.59,1.18-1.1,2.14-1.53,2.86-.43.72-.97,1.61-1.63,2.66-.66,1.05-1.32,1.88-1.97,2.47l-2.07,2.17c-1.12,1.12-2.43,1.91-3.95,2.37-2.43.79-4.8.85-7.11.2-1.51.66-2.86.99-4.05.99-4.67,0-7.5-1.84-8.49-5.53-.2-.85-.3-1.89-.3-3.11s.41-2.38,1.23-3.5c.82-1.12,1.69-1.71,2.62-1.78,3.36-6.38,6.22-12.14,8.59-17.27,2.63-5.59,5.69-8.39,9.18-8.39.92,0,1.83.21,2.71.64.89.43,1.22.91.99,1.43-.23.53-.71.63-1.43.3-.72-.33-1.35-.49-1.88-.49s-.99.1-1.38.3c-2.24,1.05-3.36,3.32-3.36,6.81,0,1.84.26,3.36.79,4.54.53,1.18,1.12,2.47,1.78,3.85,1.51,3.42,2.27,6.22,2.27,8.39s-.69,4.31-2.07,6.42c-1.38,2.11-3.03,3.82-4.93,5.13ZM469.94,81.23c0,.39.03.82.1,1.28.53,1.78,1.74,2.66,3.65,2.66.79,0,1.45-.13,1.97-.39-2.43-1.51-3.75-3.98-3.95-7.4-1.18,1.18-1.78,2.47-1.78,3.85ZM477.35,83.89c2.89-2.24,4.34-5.86,4.34-10.86,0-2.04-.23-4.84-.69-8.39-.46-3.55-.69-5.95-.69-7.2s.03-2.1.1-2.57c-5,10-8.09,16.09-9.28,18.26,1.38,0,2.07.99,2.07,2.96,0,3.88,1.38,6.48,4.14,7.8Z"/>
      <path class="cls-1" d="M494.02,80.73c0-2.83,1.22-6.25,3.65-10.26-1.05,0-1.35-.53-.89-1.58l1.78-3.45c2.24-4.28,4.08-7.9,5.53-10.86.66-1.38,1.94-2.07,3.85-2.07h6.02c-2.37,1.71-4.75,5.02-7.16,9.92-2.4,4.9-4.26,8.75-5.58,11.55-1.32,2.8-1.97,4.92-1.97,6.37s.25,2.47.74,3.06c.49.59,1.17.89,2.02.89,1.25,0,2.99-1.32,5.23-3.95,3.49-4.08,8.39-12.66,14.7-25.76.72-1.38,2.01-2.07,3.85-2.07h5.33c-1.45,1.12-2.58,2.27-3.41,3.45-.82,1.18-1.96,3.29-3.4,6.32-3.95,7.9-6.15,13.13-6.61,15.69-.2.92-.3,1.78-.3,2.57,0,2.11.72,3.22,2.17,3.36,3.55,0,7.93-5.49,13.13-16.48.39-.92.84-1.25,1.33-.99.49.26.39,1.12-.3,2.57-.69,1.45-1.32,2.73-1.88,3.85-.56,1.12-1.42,2.65-2.57,4.59-1.15,1.94-2.22,3.47-3.21,4.59-2.57,2.9-5.08,4.34-7.55,4.34s-4.16-1.09-5.08-3.26c-.4-.99-.59-2.24-.59-3.75s.33-3.39.99-5.63c-4.8,8.42-9.24,12.63-13.32,12.63-3.55,0-5.62-1.48-6.22-4.44-.2-.33-.3-.72-.3-1.18ZM516.33,46.39c-.07,0-.18-.05-.34-.15-.17-.1-.25-.26-.25-.49s.06-.44.2-.64c.13-.2,1.07-.95,2.81-2.27,1.74-1.32,3.63-2.68,5.67-4.1,2.04-1.41,3.52-2.47,4.44-3.16.92-.69,1.83-1.04,2.71-1.04s1.68.17,2.37.49c.69.33,1.04.74,1.04,1.23s-.1.94-.3,1.33c-.33.79-3.29,2.45-8.88,4.98-5.59,2.53-8.75,3.8-9.47,3.8Z"/>
      <path class="cls-1" d="M537.05,71.26c-.92,2.24-1.38,4.74-1.38,7.5,0,1.84.41,3.31,1.23,4.39.82,1.08,1.99,1.63,3.5,1.63,5.99,0,11.41-5.62,16.28-16.88.46-1.05,1.02-1.51,1.68-1.38.26.07.39.23.39.49s-.74,1.99-2.22,5.18c-1.48,3.19-2.98,5.77-4.49,7.75-3.36,4.61-7.5,6.91-12.44,6.91-2.63,0-4.87-.85-6.71-2.57-1.84-1.71-2.76-4.05-2.76-7.01s.71-6.1,2.12-9.42c1.41-3.32,3.34-6.41,5.77-9.28,2.43-2.86,5.23-4.95,8.39-6.27,1.51-.66,2.96-.99,4.34-.99s2.66.4,3.85,1.18c1.12.92,1.68,1.94,1.68,3.06,0,3.95-2.37,7.73-7.11,11.35-1.45,1.12-3.49,2.12-6.12,3.01-2.63.89-4.64,1.33-6.02,1.33ZM553.63,55.47c0-1.32-.53-1.97-1.58-1.97-1.84,0-4.64,2.27-8.39,6.81-2.24,2.76-4.21,5.86-5.92,9.28,1.12,0,2.75-.39,4.89-1.18,2.14-.79,4-1.84,5.58-3.16,3.62-3.09,5.43-6.35,5.43-9.77Z"/>
    </g>
    <g>
      <path class="cls-2" d="M31.48,96.42c-5.13,0-10.05-1-14.75-3.01-4.7-2.01-8.45-4.95-11.25-8.83-2.8-3.88-4.49-8.12-5.08-12.73-.26-1.97-.39-4.15-.39-6.51s.3-5.49.89-9.38c.59-3.88,1.89-8.09,3.9-12.63,2.01-4.54,4.39-8.55,7.16-12.04-1.12-4.41-1.68-8.47-1.68-12.19s.43-7.19,1.28-10.41c.13-.53.35-.9.64-1.14.3-.23.51-.35.64-.35.66,0,.85.81.59,2.42-.26,1.61-.39,3.92-.39,6.91s.43,6.79,1.28,11.4c5.26-6.78,11.45-11.71,18.55-14.8,5.46-2.37,11.18-3.55,17.17-3.55,1.71,0,3.49.1,5.33.3,10.13,1.12,16.97,5,20.53,11.65,1.45,2.76,2.17,5.62,2.17,8.59s-.69,6.02-2.07,9.18c-2.9,6.32-7.86,10.99-14.9,14.01-4.54,1.97-9.51,2.96-14.9,2.96-2.3,0-4.64-.16-7.01-.49-11.78-1.71-19.94-7.3-24.47-16.78-1.58,2.24-3.21,5.99-4.89,11.25-1.68,5.26-2.65,9.31-2.91,12.14-.26,2.83-.4,5.2-.4,7.11s.13,3.88.4,5.92c.46,3.62,1.84,6.89,4.15,9.82,2.3,2.93,5.38,4.97,9.23,6.12,3.85,1.15,7.19,1.73,10.02,1.73,9.14,0,16.94-1.91,23.39-5.72,3.88-2.3,6.92-4.92,9.13-7.85,2.2-2.93,4.56-6.96,7.06-12.09.4-.85.81-1.15,1.23-.89.43.26.41.89-.05,1.88-2.5,5.07-4.82,9.08-6.96,12.04-2.14,2.96-5.05,5.72-8.73,8.29-7.37,5.13-15.33,7.7-23.88,7.7ZM16.68,35.83c4.67,11.91,14.41,17.86,29.21,17.86,8.35,0,15.05-2.33,20.08-7.01,5.03-4.67,7.55-9.97,7.55-15.89s-2.57-10.53-7.7-13.82c-3.82-2.43-8.52-3.65-14.11-3.65s-11.22,1.61-16.88,4.84c-7.11,4.14-13.16,10.03-18.16,17.67Z"/>
      <path class="cls-2" d="M94.74,67.75c-2.17,4.18-3.47,7.3-3.9,9.38-.43,2.07-.64,3.75-.64,5.03s.49,1.92,1.48,1.92c1.25,0,2.8-1.15,4.64-3.45,2.7-3.36,5.36-7.73,7.99-13.13.26-.59.56-.92.89-.99.53-.2.79,0,.79.59,0,.33-.1.72-.3,1.18-6.05,12.24-11.15,18.36-15.3,18.36-1.91,0-3.45-.92-4.64-2.76-.59-.99-.89-2.3-.89-3.95s.33-3.65.99-6.02c-5.26,8.49-9.8,12.73-13.62,12.73-1.05,0-2.01-.33-2.86-.99-1.97-1.38-2.96-3.75-2.96-7.11,0-6.45,2.8-12.99,8.39-19.64,3.16-3.68,7.04-6.08,11.65-7.2,1.25-.33,2.43-.49,3.55-.49,3.03,0,5.59,1.05,7.7,3.16.66.72.85,1.42.59,2.07-.26.66-.82.92-1.68.79-.73-2.37-2.3-3.55-4.74-3.55-2.83,0-6.32,2.24-10.46,6.71-2.37,2.63-4.57,5.72-6.61,9.28-2.57,4.28-3.85,7.7-3.85,10.26s.82,3.85,2.47,3.85c3.95,0,9.11-6.05,15.49-18.16,1.25-2.43,2.3-4.1,3.16-4.98.85-.89,1.94-1.33,3.26-1.33.26,0,.94.1,2.02.3,1.09.2,1.89.23,2.42.1-1.18,1.18-2.86,3.87-5.03,8.04Z"/>
      <path class="cls-2" d="M134.12,54.09c-8.09,14.21-12.14,23.49-12.14,27.83,0,1.71.62,2.57,1.88,2.57,3.36,0,7.86-5.69,13.52-17.07.39-.92.79-1.28,1.18-1.09.4.2.59.46.59.79s-.13.72-.39,1.18c-3.49,7.04-6.43,11.89-8.83,14.56-2.4,2.67-4.8,4-7.2,4s-4.23-.92-5.48-2.76c-.66-.85-.99-2.02-.99-3.5s.33-3.27.99-5.38c.66-2.1,2.47-5.53,5.43-10.26.72-1.18,1.09-2.12,1.09-2.81s-.56-1.04-1.68-1.04-3.26,1.48-6.41,4.44c-4.74,4.34-9.31,10.86-13.72,19.54-.4.66-.84,1.07-1.33,1.23-.49.16-1.46.28-2.91.35-1.45.06-2.4.23-2.86.49,1.05-2.1,3.13-6.41,6.22-12.93,5.53-11.51,9.14-18.09,10.86-19.74.79-.79,1.88-1.18,3.26-1.18.26,0,.94.1,2.02.3,1.09.2,1.89.23,2.42.1-2.43,1.32-6.41,7.5-11.94,18.55,3.09-3.81,5.9-6.86,8.44-9.13,2.53-2.27,5.58-4.37,9.13-6.32,3.55-1.94,6.15-2.91,7.8-2.91.39,0,.76.07,1.09.2Z"/>
      <path class="cls-2" d="M158.2,80.73c0,2.11.85,3.16,2.57,3.16,3.09,0,7.2-5.17,12.34-15.49.2-.39.38-.79.54-1.18.16-.4.43-.66.79-.79.36-.13.61-.05.74.25.13.3.06.77-.2,1.43-5.26,12.24-10.59,18.36-15.99,18.36-1.78,0-3.19-.79-4.24-2.37-1.05-1.58-1.58-3.14-1.58-4.69s.16-2.98.49-4.29c-3.82,6.32-7.11,9.9-9.87,10.76-.79.33-1.56.49-2.32.49s-1.5-.1-2.22-.3c-3.22-.85-4.84-3.42-4.84-7.7,0-2.89.74-6.1,2.22-9.62,1.48-3.52,3.57-6.89,6.27-10.12,2.7-3.22,5.95-5.39,9.77-6.51,1.38-.46,3.01-.69,4.89-.69s3.96.59,6.27,1.78c4.47-8.42,8.29-16.22,11.45-23.39.92-2.17,1.83-3.57,2.71-4.19.89-.62,1.71-.94,2.47-.94h1.38c.16,0,.79.08,1.88.25,1.09.17,1.92.21,2.52.15-1.51,1.38-5.53,8.09-12.04,20.13-8.29,15.4-13.29,25.66-15,30.79-.66,1.91-.99,3.49-.99,4.74ZM163.03,54.78c-.86-.85-2.06-1.28-3.6-1.28s-3.7,1.15-6.46,3.45c-4.41,3.69-8.06,8.23-10.95,13.62-1.91,3.55-2.86,6.48-2.86,8.78,0,1.05.21,2.01.64,2.86.43.86,1.1,1.28,2.02,1.28,2.24,0,5-2.3,8.29-6.91,3.29-4.6,7.6-11.88,12.93-21.81Z"/>
      <path class="cls-2" d="M177.93,71.26c-.92,2.24-1.38,4.74-1.38,7.5,0,1.84.41,3.31,1.23,4.39.82,1.08,1.99,1.63,3.5,1.63,5.99,0,11.41-5.62,16.28-16.88.46-1.05,1.02-1.51,1.68-1.38.26.07.4.23.4.49s-.74,1.99-2.22,5.18c-1.48,3.19-2.98,5.77-4.49,7.75-3.36,4.61-7.5,6.91-12.43,6.91-2.63,0-4.87-.85-6.71-2.57-1.84-1.71-2.76-4.05-2.76-7.01s.71-6.1,2.12-9.42c1.41-3.32,3.34-6.41,5.77-9.28,2.43-2.86,5.23-4.95,8.39-6.27,1.51-.66,2.96-.99,4.34-.99s2.66.4,3.85,1.18c1.12.92,1.68,1.94,1.68,3.06,0,3.95-2.37,7.73-7.11,11.35-1.45,1.12-3.49,2.12-6.12,3.01-2.63.89-4.64,1.33-6.02,1.33ZM194.51,55.47c0-1.32-.53-1.97-1.58-1.97-1.84,0-4.64,2.27-8.39,6.81-2.24,2.76-4.21,5.86-5.92,9.28,1.12,0,2.75-.39,4.89-1.18,2.14-.79,4-1.84,5.58-3.16,3.62-3.09,5.43-6.35,5.43-9.77Z"/>
      <path class="cls-2" d="M202.41,70.12c-.53,1.55-.97,3.03-1.33,4.44-.36,1.42-.54,2.83-.54,4.24s.33,2.73.99,3.95c.66,1.22,1.71,1.83,3.16,1.83,2.37,0,4.67-1.59,6.91-4.79,2.24-3.19,4.6-7.25,7.11-12.19.53-.92,1.02-1.28,1.48-1.09.33.26.4.61.2,1.04-.2.43-.61,1.35-1.23,2.76-.63,1.42-1.09,2.4-1.38,2.96-.3.56-.82,1.55-1.58,2.96-.76,1.42-1.42,2.47-1.97,3.16-.56.69-1.32,1.58-2.27,2.67-.95,1.09-1.86,1.89-2.71,2.42-2.3,1.45-4.48,2.17-6.51,2.17s-3.62-.44-4.74-1.33c-1.12-.89-1.79-1.84-2.02-2.86-.23-1.02-.35-1.92-.35-2.71s.03-1.81.1-3.06c.2-2.1.61-4.15,1.23-6.12.62-1.97.97-3.09,1.04-3.36,1.51-5.46,3.67-11.41,6.46-17.86,2.8-6.45,5.16-11.3,7.11-14.56,1.94-3.26,3.47-5.48,4.59-6.66,2.24-2.37,4.44-3.55,6.61-3.55,1.51,0,2.53,1.09,3.06,3.26.06.39.1.89.1,1.48,0,2.24-.79,5.07-2.37,8.49-5.66,12.57-12.4,22.44-20.23,29.61-.07.26-.36,1.17-.89,2.71ZM214.05,51.32c3.29-5.2,5.71-9.62,7.25-13.27,1.54-3.65,2.32-6.13,2.32-7.45s-.23-1.97-.69-1.97c-.66,0-1.91,1.3-3.75,3.9-1.84,2.6-4.33,7.27-7.45,14.01-3.13,6.74-5.67,12.65-7.65,17.71,3.36-3.42,6.68-7.73,9.97-12.93Z"/>
      <path class="cls-2" d="M243.76,67.75c-2.17,4.18-3.47,7.3-3.9,9.38-.43,2.07-.64,3.75-.64,5.03s.49,1.92,1.48,1.92c1.25,0,2.8-1.15,4.64-3.45,2.7-3.36,5.36-7.73,7.99-13.13.26-.59.56-.92.89-.99.53-.2.79,0,.79.59,0,.33-.1.72-.3,1.18-6.05,12.24-11.15,18.36-15.3,18.36-1.91,0-3.45-.92-4.64-2.76-.59-.99-.89-2.3-.89-3.95s.33-3.65.99-6.02c-5.26,8.49-9.8,12.73-13.62,12.73-1.05,0-2.01-.33-2.86-.99-1.97-1.38-2.96-3.75-2.96-7.11,0-6.45,2.8-12.99,8.39-19.64,3.16-3.68,7.04-6.08,11.65-7.2,1.25-.33,2.43-.49,3.55-.49,3.03,0,5.59,1.05,7.7,3.16.66.72.85,1.42.59,2.07-.26.66-.82.92-1.68.79-.73-2.37-2.3-3.55-4.74-3.55-2.83,0-6.32,2.24-10.46,6.71-2.37,2.63-4.57,5.72-6.61,9.28-2.57,4.28-3.85,7.7-3.85,10.26s.82,3.85,2.47,3.85c3.95,0,9.11-6.05,15.49-18.16,1.25-2.43,2.3-4.1,3.16-4.98.85-.89,1.94-1.33,3.26-1.33.26,0,.94.1,2.02.3,1.09.2,1.89.23,2.42.1-1.18,1.18-2.86,3.87-5.03,8.04Z"/>
      <path class="cls-2" d="M265.27,117.64c-2.89,0-5.13-.61-6.71-1.83-1.58-1.22-2.37-2.68-2.37-4.39s.49-3.65,1.48-5.82c1.71-3.36,4.8-6.05,9.28-8.09,3.36-1.58,7.8-3.04,13.32-4.39,5.53-1.35,9.08-2.25,10.66-2.71,2.37-4.14,5.2-11.55,8.49-22.2-3.82,6.71-7.01,11.42-9.57,14.11-2.57,2.7-5.17,4.05-7.8,4.05-3.55,0-5.62-1.48-6.22-4.44-.26-.46-.33-1.15-.2-2.07.13-.92.21-1.58.25-1.97.03-.39.25-1.04.64-1.92.39-.89.66-1.53.79-1.92.72-1.51,1.35-2.7,1.88-3.55-1.05,0-1.35-.53-.89-1.58l1.78-3.45c2.24-4.28,4.08-7.9,5.53-10.86.66-1.38,1.94-2.07,3.85-2.07h6.02c-.13.13-.46.39-.99.79-1.18.79-2.07,1.71-2.66,2.76-2.37,4.08-5.33,9.9-8.88,17.47-1.45,3.09-2.17,5.36-2.17,6.81s.25,2.47.74,3.06c.49.59,1.17.89,2.02.89,1.25,0,2.99-1.32,5.23-3.95,4.67-5.46,9.83-14.05,15.49-25.76.72-1.38,2.01-2.07,3.85-2.07h5.33c-1.71,1.18-3.06,2.68-4.05,4.49-.99,1.81-2.06,4.26-3.21,7.35-1.15,3.09-2.6,7.2-4.34,12.34-1.74,5.13-3.08,8.98-4,11.55,6.18-1.84,10.92-5.1,14.21-9.77,1.45-2.04,3.52-5.66,6.22-10.86.46-.92.87-1.28,1.23-1.09.36.2.54.46.54.79s-.54,1.6-1.63,3.8c-1.08,2.21-2.19,4.24-3.31,6.12-1.12,1.88-2.57,3.8-4.34,5.77s-3.75,3.54-5.92,4.69c-2.17,1.15-5.07,2.38-8.68,3.7-5.07,9.21-10.17,15.99-15.3,20.33-4.8,3.95-10,5.92-15.59,5.92ZM259.54,107.87c-.72,1.45-1.09,2.78-1.09,4s.46,2.15,1.38,2.81c.92.66,2.07.99,3.45.99,3.82,0,7.9-1.96,12.24-5.87,4.34-3.92,8.16-8.11,11.45-12.58l2.17-3.65c-10.86,2.83-17.7,4.87-20.53,6.12-4.21,1.84-7.24,4.57-9.08,8.19Z"/>
      <path class="cls-2" d="M455.64,16.78l-4.24.79c-5.07,8.75-9.94,20.53-14.61,35.33-1.78,5.59-4.28,12.02-7.5,19.29-3.22,7.27-6.81,14-10.76,20.18-5.33,8.29-12.42,15.12-21.27,20.48-8.85,5.36-16.93,8.54-24.23,9.52-3.36.46-7.17.69-11.45.69s-8.68-.76-13.22-2.27c-7.11-2.37-11.97-6.25-14.61-11.65-1.18-2.5-1.78-5.43-1.78-8.78s.89-7.3,2.67-11.84c1.25-3.03,3.45-5.85,6.61-8.49,3.16-2.63,5.62-3.98,7.4-4.05.79-.06,1.18.07,1.18.39-.07.26-.49.59-1.28.99-2.11.86-4.44,2.73-7.01,5.63-2.57,2.9-4.26,5.81-5.08,8.73-.82,2.93-1.23,5.18-1.23,6.76,0,4.8,1.28,8.68,3.85,11.65,1.78,1.97,3.98,3.75,6.61,5.33,2.63,1.58,5.46,2.66,8.49,3.26,4.47.85,8.03,1.28,10.66,1.28s4.97-.26,7.01-.79c4.47-.99,8.8-2.63,12.98-4.93,4.18-2.3,7.88-4.82,11.1-7.55,3.22-2.73,6.43-6.1,9.62-10.12,3.19-4.01,5.87-7.67,8.04-10.95,2.17-3.29,4.47-7.24,6.91-11.84,3.95-7.5,7.99-16.12,12.14-25.86,5.2-11.58,10.46-21.58,15.79-30-9.15,1.51-18.46,4.8-27.93,9.87-4.8,2.57-8.92,5.82-12.34,9.77-4.41,5-6.61,10.36-6.61,16.09,0,3.09.74,5.49,2.22,7.2,1.48,1.71,3.04,2.57,4.69,2.57s3.45-.36,5.43-1.09c1.97-.72,3.75-1.97,5.33-3.75,2.5-2.89,3.75-6.22,3.75-9.97,0-1.58-.23-2.63-.69-3.16-.79-.53-.86-1.02-.2-1.48.72-.4,1.48-.16,2.27.69.66,1.45.99,3.14.99,5.08s-.72,4.16-2.17,6.66c-2.43,4.15-5.79,6.97-10.07,8.49-1.97.66-3.85.99-5.63.99-2.96,0-5.62-.95-7.99-2.86-3.03-2.5-4.54-5.85-4.54-10.07,0-5.33,1.91-10.43,5.72-15.3,2.89-3.75,6.3-6.84,10.21-9.28,3.91-2.43,8.34-4.6,13.27-6.51,7.96-3.09,16.61-5.26,25.96-6.51.79-1.31,1.97-2.86,3.55-4.64s2.89-2.83,3.95-3.16c1.05-.33,1.91-.49,2.57-.49,2.3,0,3.45.99,3.45,2.96-.07,1.78-.79,3.14-2.17,4.1-1.38.95-3.32,1.83-5.82,2.62ZM458.7,10.27c-.13,0-.28.03-.44.1-.17.07-.39.21-.69.44-.3.23-.58.44-.84.64-.26.2-.58.49-.94.89-.36.39-.66.71-.89.94-.23.23-.54.56-.94.99-.39.43-.66.71-.79.84,4.54-.79,6.78-2.01,6.71-3.65-.13-.79-.53-1.18-1.18-1.18Z"/>
      <path class="cls-2" d="M457.12,51.92c4.8,0,7.2,3.03,7.2,9.08,0,2.76-.72,5.72-2.17,8.88-1.84,4.28-4.61,8.16-8.29,11.65.85,1.65,2.4,2.47,4.64,2.47,1.78,0,3.45-.89,5.03-2.67,1.97-2.04,3.39-3.83,4.24-5.38.85-1.55,1.48-2.68,1.88-3.4.39-.72.9-1.76,1.53-3.11.62-1.35,1-2.17,1.14-2.47.13-.3.36-.44.69-.44.66-.06.99.17.99.69,0,.2-.07.43-.2.69l-.59,1.38c-.39.92-.69,1.58-.89,1.97-.2.4-.54,1.1-1.04,2.12-.49,1.02-.92,1.83-1.28,2.42-.36.59-.86,1.38-1.48,2.37-.63.99-1.18,1.78-1.68,2.37-.49.59-1.1,1.25-1.83,1.97s-1.42,1.28-2.07,1.68c-1.65.99-3.19,1.48-4.64,1.48-2.7,0-4.8-.85-6.32-2.57-3.03,2.24-5.82,3.36-8.39,3.36-4.8,0-7.2-3.03-7.2-9.08,0-2.76.72-5.72,2.17-8.88,1.97-4.6,4.75-8.52,8.34-11.74,3.58-3.22,6.99-4.84,10.21-4.84ZM458.2,54.97c-1.78,0-3.88,1.18-6.32,3.55-2.44,2.37-4.61,5.59-6.51,9.67-2.3,4.74-3.45,8.62-3.45,11.65s1.15,4.54,3.45,4.54c1.64,0,3.49-.89,5.53-2.67-1.05-1.51-1.58-3.12-1.58-4.84.13-2.83,1.28-4.24,3.45-4.24.85,0,1.56.3,2.12.89.56.59.84,1.13.84,1.63s-.07,1-.2,1.53c1.12-1.64,2.4-3.98,3.85-7.01,1.64-3.35,2.47-6.64,2.47-9.87s-1.22-4.84-3.65-4.84Z"/>
      <path class="cls-2" d="M480.7,84.58c.85.13,1.45.2,1.78.2,2.63,0,5.23-1.54,7.8-4.64,1.38-1.71,3.85-6.02,7.4-12.93.13-.33.36-.49.69-.49.59-.06.89.17.89.69,0,.13-.15.51-.44,1.13-.3.63-.58,1.25-.84,1.88-.26.63-.69,1.53-1.28,2.71-.59,1.18-1.1,2.14-1.53,2.86-.43.72-.97,1.61-1.63,2.66-.66,1.05-1.32,1.88-1.97,2.47l-2.07,2.17c-1.12,1.12-2.43,1.91-3.95,2.37-2.43.79-4.8.85-7.11.2-1.51.66-2.86.99-4.05.99-4.67,0-7.5-1.84-8.49-5.53-.2-.85-.3-1.89-.3-3.11s.41-2.38,1.23-3.5c.82-1.12,1.69-1.71,2.62-1.78,3.36-6.38,6.22-12.14,8.59-17.27,2.63-5.59,5.69-8.39,9.18-8.39.92,0,1.83.21,2.71.64.89.43,1.22.91.99,1.43-.23.53-.71.63-1.43.3-.72-.33-1.35-.49-1.88-.49s-.99.1-1.38.3c-2.24,1.05-3.36,3.32-3.36,6.81,0,1.84.26,3.36.79,4.54.53,1.18,1.12,2.47,1.78,3.85,1.51,3.42,2.27,6.22,2.27,8.39s-.69,4.31-2.07,6.42c-1.38,2.11-3.03,3.82-4.93,5.13ZM469.94,81.23c0,.39.03.82.1,1.28.53,1.78,1.74,2.66,3.65,2.66.79,0,1.45-.13,1.97-.39-2.43-1.51-3.75-3.98-3.95-7.4-1.18,1.18-1.78,2.47-1.78,3.85ZM477.35,83.89c2.89-2.24,4.34-5.86,4.34-10.86,0-2.04-.23-4.84-.69-8.39-.46-3.55-.69-5.95-.69-7.2s.03-2.1.1-2.57c-5,10-8.09,16.09-9.28,18.26,1.38,0,2.07.99,2.07,2.96,0,3.88,1.38,6.48,4.14,7.8Z"/>
      <path class="cls-2" d="M494.02,80.73c0-2.83,1.22-6.25,3.65-10.26-1.05,0-1.35-.53-.89-1.58l1.78-3.45c2.24-4.28,4.08-7.9,5.53-10.86.66-1.38,1.94-2.07,3.85-2.07h6.02c-2.37,1.71-4.75,5.02-7.16,9.92-2.4,4.9-4.26,8.75-5.58,11.55-1.32,2.8-1.97,4.92-1.97,6.37s.25,2.47.74,3.06c.49.59,1.17.89,2.02.89,1.25,0,2.99-1.32,5.23-3.95,3.49-4.08,8.39-12.66,14.7-25.76.72-1.38,2.01-2.07,3.85-2.07h5.33c-1.45,1.12-2.58,2.27-3.41,3.45-.82,1.18-1.96,3.29-3.4,6.32-3.95,7.9-6.15,13.13-6.61,15.69-.2.92-.3,1.78-.3,2.57,0,2.11.72,3.22,2.17,3.36,3.55,0,7.93-5.49,13.13-16.48.39-.92.84-1.25,1.33-.99.49.26.39,1.12-.3,2.57-.69,1.45-1.32,2.73-1.88,3.85-.56,1.12-1.42,2.65-2.57,4.59-1.15,1.94-2.22,3.47-3.21,4.59-2.57,2.9-5.08,4.34-7.55,4.34s-4.16-1.09-5.08-3.26c-.4-.99-.59-2.24-.59-3.75s.33-3.39.99-5.63c-4.8,8.42-9.24,12.63-13.32,12.63-3.55,0-5.62-1.48-6.22-4.44-.2-.33-.3-.72-.3-1.18ZM516.33,46.39c-.07,0-.18-.05-.34-.15-.17-.1-.25-.26-.25-.49s.06-.44.2-.64c.13-.2,1.07-.95,2.81-2.27,1.74-1.32,3.63-2.68,5.67-4.1,2.04-1.41,3.52-2.47,4.44-3.16.92-.69,1.83-1.04,2.71-1.04s1.68.17,2.37.49c.69.33,1.04.74,1.04,1.23s-.1.94-.3,1.33c-.33.79-3.29,2.45-8.88,4.98-5.59,2.53-8.75,3.8-9.47,3.8Z"/>
      <path class="cls-2" d="M537.05,71.26c-.92,2.24-1.38,4.74-1.38,7.5,0,1.84.41,3.31,1.23,4.39.82,1.08,1.99,1.63,3.5,1.63,5.99,0,11.41-5.62,16.28-16.88.46-1.05,1.02-1.51,1.68-1.38.26.07.39.23.39.49s-.74,1.99-2.22,5.18c-1.48,3.19-2.98,5.77-4.49,7.75-3.36,4.61-7.5,6.91-12.44,6.91-2.63,0-4.87-.85-6.71-2.57-1.84-1.71-2.76-4.05-2.76-7.01s.71-6.1,2.12-9.42c1.41-3.32,3.34-6.41,5.77-9.28,2.43-2.86,5.23-4.95,8.39-6.27,1.51-.66,2.96-.99,4.34-.99s2.66.4,3.85,1.18c1.12.92,1.68,1.94,1.68,3.06,0,3.95-2.37,7.73-7.11,11.35-1.45,1.12-3.49,2.12-6.12,3.01-2.63.89-4.64,1.33-6.02,1.33ZM553.63,55.47c0-1.32-.53-1.97-1.58-1.97-1.84,0-4.64,2.27-8.39,6.81-2.24,2.76-4.21,5.86-5.92,9.28,1.12,0,2.75-.39,4.89-1.18,2.14-.79,4-1.84,5.58-3.16,3.62-3.09,5.43-6.35,5.43-9.77Z"/>
    </g>
  </g>
</svg>